<svg xmlns="http://www.w3.org/2000/svg" id="Layer_1" viewBox="0 0 1216 715"><defs><style>      .st0 {        fill: #fff;      }    </style></defs><path class="st0" d="M142.67,79.15l544.46-.57c83.43,9.16,141.33,73.28,146.68,156.46,7.36,114.28-5.53,236.09.09,351.16-2.12,37.4-26.3,65.12-64.28,68.11H249.54c-84.5-5.03-148.43-62-158.28-146.77l.28-375.92c4.15-27.05,24.41-47.21,51.14-52.47Z"></path><path class="st0" d="M1084.75,88.68c27.91-2.94,39.24,22.55,40.78,46.49l-.1,462.43c-4.82,52.69-44.89,51.36-79.55,23.98-48.34-46.23-102.38-87.12-150.68-133.28-14.83-14.17-19.52-18.51-21.15-40.24-3.41-45.47-3.42-121.61,0-167.07,1.72-22.81,7.51-27.38,23.07-42.16,42.59-40.43,95.73-88.77,141.1-125.59,12.3-9.98,30.32-22.84,46.53-24.55Z"></path></svg>